<svg xmlns="http://www.w3.org/2000/svg" xmlns:xlink="http://www.w3.org/1999/xlink" viewBox="362 362 776 776" preserveAspectRatio="xMidYMid meet" version="1.0"><defs><clipPath id="81f61f89d9"><path d="M 362.421875 362.421875 L 1137.921875 362.421875 L 1137.921875 1137.921875 L 362.421875 1137.921875 Z M 362.421875 362.421875 " clip-rule="nonzero"/></clipPath></defs><path fill="#5dcad1" d="M 572.304688 593.582031 C 567.371094 593.964844 561.136719 596.125 553.0625 600.785156 C 501.386719 630.617188 575.800781 644.355469 545.96875 696.027344 C 516.132812 747.703125 467.0625 690.109375 467.0625 749.777344 C 467.0625 809.445312 516.132812 751.851562 545.96875 803.527344 C 575.800781 855.199219 501.390625 868.9375 553.0625 898.769531 C 604.734375 928.605469 579.390625 857.277344 639.058594 857.277344 C 698.726562 857.277344 673.382812 928.605469 725.058594 898.769531 C 776.730469 868.9375 702.320312 855.199219 732.152344 803.527344 C 761.984375 751.851562 811.058594 809.445312 811.058594 749.777344 C 811.058594 690.109375 761.988281 747.703125 732.152344 696.027344 C 702.316406 644.355469 776.730469 630.617188 725.058594 600.785156 C 673.386719 570.949219 698.726562 642.277344 639.058594 642.277344 C 588.71875 642.277344 598.933594 591.519531 572.304688 593.582031 Z M 639.058594 680.976562 C 677.054688 680.976562 707.855469 711.777344 707.855469 749.773438 C 707.855469 787.769531 677.054688 818.574219 639.058594 818.574219 C 601.0625 818.574219 570.261719 787.769531 570.261719 749.773438 C 570.261719 711.777344 601.0625 680.976562 639.058594 680.976562 Z M 639.058594 680.976562 " fill-opacity="1" fill-rule="nonzero"/><path fill="#5dcad1" d="M 796.746094 673.355469 C 793.683594 675.449219 790.445312 679.191406 786.945312 685.246094 C 764.570312 724 818.054688 705.019531 818.054688 749.769531 C 818.054688 794.519531 764.585938 775.515625 786.960938 814.269531 C 809.339844 853.023438 819.609375 797.214844 858.367188 819.589844 C 897.125 841.964844 853.941406 878.789062 898.691406 878.789062 C 943.4375 878.789062 900.230469 841.964844 938.988281 819.589844 C 977.746094 797.214844 988.03125 853.046875 1010.402344 814.292969 C 1032.777344 775.535156 979.296875 794.519531 979.296875 749.769531 C 979.296875 705.019531 1032.765625 724.023438 1010.390625 685.269531 C 988.011719 646.515625 977.738281 702.324219 938.984375 679.949219 C 900.226562 657.574219 943.410156 620.75 898.660156 620.75 C 853.914062 620.75 897.121094 657.574219 858.363281 679.949219 C 825.664062 698.828125 813.265625 662.027344 796.742188 673.351562 Z M 872.875 705.085938 C 897.554688 690.835938 929.113281 699.292969 943.359375 723.972656 C 957.609375 748.652344 949.152344 780.207031 924.472656 794.453125 C 899.792969 808.703125 868.238281 800.246094 853.988281 775.570312 C 839.742188 750.890625 848.195312 719.332031 872.875 705.085938 Z M 872.875 705.085938 " fill-opacity="1" fill-rule="nonzero"/><g clip-path="url(#81f61f89d9)"><path fill="#5dcad1" d="M 611.335938 1111.828125 C 563.046875 1093.363281 519.015625 1065.667969 481.375 1029.449219 C 443.738281 993.230469 414.265625 950.621094 393.671875 903.039062 C 373.785156 856.878906 363.488281 808.230469 362.421875 757.808594 C 361.359375 707.386719 369.878906 658.386719 387.988281 611.515625 C 406.453125 563.222656 434.148438 519.191406 470.367188 481.554688 C 506.585938 443.914062 549.199219 414.441406 596.777344 393.847656 C 642.941406 373.964844 691.585938 363.667969 742.007812 362.601562 C 792.429688 361.535156 841.429688 370.058594 888.300781 388.167969 C 936.59375 406.632812 980.625 434.328125 1018.261719 470.546875 C 1055.902344 506.765625 1085.375 549.375 1105.96875 596.957031 C 1125.855469 643.117188 1136.152344 691.765625 1137.214844 742.1875 C 1138.28125 792.609375 1129.761719 841.609375 1111.652344 888.480469 C 1093.1875 936.773438 1065.488281 980.800781 1029.269531 1018.441406 C 993.050781 1056.078125 950.441406 1085.550781 902.859375 1106.148438 C 856.699219 1126.03125 808.054688 1136.328125 757.632812 1137.394531 C 754.792969 1137.394531 752.304688 1137.394531 749.464844 1137.394531 C 701.882812 1137.394531 655.367188 1128.871094 611.335938 1111.828125 Z M 742.71875 405.566406 C 650.75 407.339844 564.820312 444.980469 501.261719 511.382812 C 437.699219 577.78125 403.613281 665.132812 405.386719 757.097656 C 407.164062 849.066406 444.804688 934.996094 511.203125 998.554688 C 575.828125 1060.695312 660.339844 1094.429688 749.820312 1094.429688 C 752.304688 1094.429688 754.4375 1094.429688 756.921875 1094.429688 C 848.886719 1092.652344 934.820312 1055.015625 998.378906 988.613281 C 1061.9375 922.214844 1096.027344 834.863281 1094.25 742.894531 C 1092.476562 650.929688 1054.835938 565 988.4375 501.4375 C 923.8125 439.300781 839.300781 405.566406 749.820312 405.566406 C 660.339844 405.566406 745.203125 405.566406 742.71875 405.566406 Z M 742.71875 405.566406 " fill-opacity="1" fill-rule="nonzero"/></g></svg>